Coordinates
version=1
nRows=14
nColumns=24
inDegrees=yes

Units are S.I. units (second, meters, Newtons, ...)
If the header above contains a line with 'inDegrees', this indicates whether rotational values are in degrees (yes) or radians (no).

endheader
time	pelvis_tilt	pelvis_list	pelvis_rotation	pelvis_tx	pelvis_ty	pelvis_tz	lumbar_extension	lumbar_bending	lumbar_rotation	arm_flex_r	arm_add_r	arm_rot_r	elbow_flex_r	pro_sup_r	wrist_flex_r	wrist_dev_r	arm_flex_l	arm_add_l	arm_rot_l	elbow_flex_l	pro_sup_l	wrist_flex_l	wrist_dev_l
     40.96000000	    -15.92254163	     -3.97430677	     -7.52720813	      1.18689369	      0.87393134	      0.16808666	     -5.52117632	      7.35790723	      4.66713377	      7.95320090	    -23.84906502	     29.37421866	     46.34894174	     58.48117370	    -28.48035088	    -22.03408575	     21.23755434	    -21.47660217	     39.49994384	    116.19203432	     70.00162493	    -13.21170134	    -14.47467844
     40.96400000	    -15.95101410	     -3.97232573	     -7.52283242	      1.18669542	      0.87406994	      0.16813720	     -5.55002044	      7.35540607	      4.66707091	      7.95853718	    -23.86000440	     29.37302554	     46.34957959	     58.47842222	    -28.47790935	    -22.03702724	     21.20211592	    -21.50964639	     39.51219742	    116.15531703	     69.99851362	    -13.21144187	    -14.46915130
     40.96800000	    -15.95934881	     -3.97696503	     -7.55092809	      1.18661191	      0.87405340	      0.16834666	     -5.56016917	      7.35133050	      4.63615527	      7.98967733	    -23.82094274	     29.38405210	     46.37818222	     58.47548329	    -28.47049964	    -22.04475716	     21.16132873	    -21.51825088	     39.52656423	    116.04289896	     69.99325252	    -13.21386802	    -14.45957259
     40.97200000	    -15.96062172	     -3.97732178	     -7.55257863	      1.18650005	      0.87392596	      0.16843849	     -5.56270589	      7.35058935	      4.63359804	      7.98845559	    -23.82200410	     29.38418953	     46.37710233	     58.47523487	    -28.47037368	    -22.04480622	     21.15907454	    -21.51780960	     39.52722190	    116.03950165	     69.99305479	    -13.21406034	    -14.45933945
     40.97600000	    -15.95267249	     -3.96819520	     -7.57104436	      1.18654861	      0.87412507	      0.16820169	     -5.55616887	      7.36316505	      4.61850302	      8.04643722	    -23.81875016	     29.46877976	     46.22462158	     58.41813032	    -28.41374234	    -22.06721221	     21.09738567	    -21.39597471	     39.44266276	    115.70525468	     69.99372703	    -13.23585268	    -14.46375735
     40.98000000	    -15.73753395	     -4.35315409	     -7.61112475	      1.19058735	      0.87455427	      0.17555961	     -5.25415851	      6.98067905	      4.55720066	      7.77715245	    -19.14406987	     20.69694238	     40.92285554	     68.64460628	    -22.53544504	    -22.23569039	     20.50319791	    -22.47234276	     39.68887015	    116.12021486	     69.37454863	    -13.85715972	    -14.49864373
     40.98400000	    -15.73841097	     -4.35378941	     -7.61084852	      1.19046178	      0.87449730	      0.17558148	     -5.25592490	      6.97979439	      4.55701446	      7.77625085	    -19.14461584	     20.69655405	     40.92247554	     68.64463597	    -22.53585206	    -22.23544209	     20.50031267	    -22.47274685	     39.69038984	    116.11837196	     69.37438108	    -13.85717740	    -14.49835869
     40.98800000	    -15.73726180	     -4.35960562	     -7.63565619	      1.19043249	      0.87463006	      0.17578593	     -5.25545012	      6.97532674	      4.53066339	      7.79928219	    -19.09242933	     20.68124421	     40.92830568	     68.64946991	    -22.55872984	    -22.22079481	     20.46221415	    -22.47710221	     39.70236935	    115.88456061	     69.36491499	    -13.86465094	    -14.48169395
     40.99200000	    -15.72158664	     -4.37078601	     -7.63056757	      1.19053545	      0.87458106	      0.17596522	     -5.23756441	      6.96528204	      4.53606962	      7.76780953	    -19.06963546	     20.66615912	     40.87219757	     68.65386257	    -22.58926321	    -22.19355393	     20.49387484	    -22.46271010	     39.66044993	    115.65316842	     69.37318056	    -13.86324786	    -14.47782713
     40.99600000	    -15.73367109	     -4.37561589	     -7.64595173	      1.19058007	      0.87448397	      0.17590804	     -5.25026337	      6.96045869	      4.51916877	      7.75297317	    -19.07576662	     20.66293858	     40.86528442	     68.65413417	    -22.59177672	    -22.19132136	     20.49904356	    -22.47280826	     39.65664874	    115.63069813	     69.37464839	    -13.86169600	    -14.47722961
     41.00000000	    -15.73156638	     -4.37438606	     -7.67339183	      1.19041186	      0.87457527	      0.17599817	     -5.25102342	      6.96370629	      4.49134929	      7.76574427	    -19.05059027	     20.62035347	     40.90450222	     68.66326266	    -22.60474671	    -22.18039594	     20.48269254	    -22.54105547	     39.64228429	    115.45666424	     69.38081416	    -13.85093981	    -14.46857821
     41.00400000	    -15.72984216	     -4.39498947	     -7.67214445	      1.19039557	      0.87451185	      0.17640428	     -5.24676419	      6.94186514	      4.48883517	      7.73908021	    -18.98347166	     20.58360693	     40.91161534	     68.67611303	    -22.62371365	    -22.15578584	     20.50960921	    -22.51848701	     39.59795120	    115.25439713	     69.41230542	    -13.82600270	    -14.47424725
     41.00800000	    -15.73354571	     -4.39410198	     -7.67181313	      1.19039342	      0.87434886	      0.17648204	     -5.25124318	      6.94197598	      4.48829334	      7.73779864	    -18.98414039	     20.58324153	     40.91039379	     68.67615033	    -22.62396771	    -22.15541822	     20.50794744	    -22.51841911	     39.59882329	    115.25155505	     69.41267776	    -13.82566579	    -14.47421305
     41.01200000	    -15.81628653	     -4.36287130	     -7.54002255	      1.18929141	      0.87476711	      0.17571135	     -5.33250948	      6.95341993	      4.61435052	      7.50072184	    -19.01939613	     19.65158622	     41.30196054	     69.17287737	    -22.90671289	    -21.59629432	     20.83070868	    -22.25328425	     39.73566212	    114.63784217	     70.58029350	    -12.94300773	    -15.01199564
